HIERARCHY
ROOT pelvis
{
  OFFSET 0 100 0
  CHANNELS 6 Xposition Yposition Zposition Zrotation Xrotation Yrotation
  JOINT pelvis_right_femur
  {
    OFFSET -10.78128 -3.44521 -0.5502486
    CHANNELS 3 Zrotation Xrotation Yrotation
    JOINT right_femur_tibia
    {
      OFFSET -0.8047443 -44.0398 -0.1307829
      CHANNELS 3 Zrotation Xrotation Yrotation
      JOINT right_tibia_foot
      {
        OFFSET 3.006224 -47.83518 -5
        CHANNELS 3 Zrotation Xrotation Yrotation
        End Site
        {
          OFFSET 0 -5 15
        }
      }
    }
  }
  JOINT pelvis_left_femur
  {
    OFFSET 10.78128 -3.44521 -0.5502486
    CHANNELS 3 Zrotation Xrotation Yrotation
    JOINT left_femur_tibia
    {
      OFFSET 0.8047443 -44.0398 -0.1307829
      CHANNELS 3 Zrotation Xrotation Yrotation
      JOINT left_tibia_foot
      {
        OFFSET -4.370144 -48.10324 -4.275266
        CHANNELS 3 Zrotation Xrotation Yrotation
        End Site
        {
          OFFSET 0 -5 15
        }
      }
    }
  }
  JOINT pelvis_spine1
  {
    OFFSET 0 6.468898 -3.129235
    CHANNELS 3 Zrotation Xrotation Yrotation
    JOINT spine1
    {
      OFFSET 0 23.15396 4.99043
      CHANNELS 3 Zrotation Xrotation Yrotation
      JOINT spine2
      {
        OFFSET 0 20.79997 -5.064912
        CHANNELS 3 Zrotation Xrotation Yrotation
        JOINT neck
        {
          OFFSET 0 14.38658 9.616178
          CHANNELS 3 Zrotation Xrotation Yrotation
          End Site
          {
            OFFSET 0 20 0
          }
        }
      }
      JOINT right_manubrium
      {
        OFFSET -5.722621 16.35077 3.967754
        CHANNELS 3 Zrotation Xrotation Yrotation
        JOINT right_clavicle
        {
          OFFSET -13.16364 1.694482 -4.693211
          CHANNELS 3 Zrotation Xrotation Yrotation
          JOINT right_humerus
          {
            OFFSET -28.5034 -0.3100689 -2.792744
            CHANNELS 3 Zrotation Xrotation Yrotation
            JOINT right_radius
            {
              OFFSET -25.15693 0.02248979 -1.271978
              CHANNELS 3 Zrotation Xrotation Yrotation
              End Site
              {
                OFFSET -15 0 0
              }
            }
          }
        }
      }
      JOINT left_manubrium
      {
        OFFSET 5.722621 16.35077 3.967754
        CHANNELS 3 Zrotation Xrotation Yrotation
        JOINT left_clavicle
        {
          OFFSET 13.16364 1.694482 -4.693211
          CHANNELS 3 Zrotation Xrotation Yrotation
          JOINT left_humerus
          {
            OFFSET 29.39168 -1.063119 -2.237045
            CHANNELS 3 Zrotation Xrotation Yrotation
            JOINT left_radius
            {
              OFFSET 24.59957 -0.9528479 0.9047498
              CHANNELS 3 Zrotation Xrotation Yrotation
              End Site
              {
                OFFSET 15 -0 -0
              }
            }
          }
        }
      }
    }
  }
}
MOTION
Frames: 7
Frame Time: 0.0416666666667
0 103.5113 0 -0.6147425 -1.012175 0.3418386 2.384197 -10.50842 8.920876 -0 34.2445 -0 -3.912714 -14.42316 -2.907543 -4.897608 7.83281 -20.05218 -0 7.542491 -0 11.4206 -16.73915 27.32299 -1.586753 -6.628337 5.804332 1.91824 11.19333 -5.298827 0.0553732 21.83191 9.394193 6.738213 -18.94297 6.760215 8.25187 -18.30348 12.38631 82.33105 34.34381 -18.8785 -0 0 17.84091 -16.1763 8.1246 7.877605 5.212975 -16.99711 -7.369469 -96.49637 26.10235 16.47993 0 0 -4.015719 11.48122 26.34489 -0.72676
0.6710739 103.685 1.412256 -0.6293894 -1.014417 0.3092711 3.220869 -14.29283 9.158293 -0 38.88794 -0 -4.311234 -13.63853 -3.718188 -5.123685 9.19348 -19.69762 -0 6.709692 -0 10.84702 -17.22419 26.88116 -2.241885 -6.4814 5.336403 2.537363 11.62484 -5.727901 0.1438589 21.90224 9.693818 7.102104 -18.79389 6.89108 8.268404 -18.26878 12.15861 82.04926 34.14199 -18.94552 -0 0 17.48569 -15.61801 8.166036 7.131793 4.997724 -15.7233 -8.470594 -95.85383 26.62838 15.04051 0 0 -5.508516 11.38743 25.81107 -0.446762
1.087511 103.7204 3.098085 -0.6417777 -1.012208 0.3135495 4.223046 -18.16297 8.921409 -0 40.88732 -0 -4.819192 -12.72727 -4.170149 -5.194131 10.72115 -19.26843 -0 5.803694 -0 10.19988 -17.77252 26.407 -2.672153 -5.758558 5.014957 2.677035 11.56967 -6.082982 0.1929925 21.71717 9.984903 7.301702 -18.95509 7.126436 8.056879 -18.01838 11.66095 82.4443 33.90251 -19.30749 -0 0 17.1247 -14.96044 8.206755 6.455875 5.080628 -15.94607 -8.194412 -95.43664 27.1158 14.67051 0 0 -6.666012 11.12676 25.25132 -0.1007406
1.344129 103.4921 5.257217 -0.6587055 -1.01511 0.2545108 5.114844 -21.81441 8.360329 -0 40.10965 -0 -5.403212 -11.43232 -4.403773 -5.181165 12.52182 -18.749 -0 5.003161 -0 9.558443 -18.48652 25.8677 -2.86052 -4.43904 4.723449 2.419588 10.96181 -6.420261 0.1957252 21.13807 10.20096 7.350917 -19.40579 7.328426 7.639575 -17.6211 11.02467 83.38399 33.65552 -19.86638 -0 0 16.68716 -14.14166 8.261894 5.825088 5.589327 -17.58296 -6.639186 -95.23743 27.56785 15.30281 0 0 -7.645049 10.73867 24.67365 0.2422742
1.682722 103.2497 7.352937 -0.6624034 -1.001549 0.3671499 5.721259 -25.13736 7.669824 -0 37.09235 -0 -5.957929 -9.442925 -4.395444 -5.226249 14.16861 -18.22749 -0 4.342374 -0 8.914763 -19.35374 25.19844 -2.951294 -3.421381 4.791022 2.343197 10.5291 -6.50066 0.2752045 20.85598 10.30599 7.405409 -19.83271 7.520842 7.230977 -17.20895 10.54789 84.34377 33.45564 -20.56045 -0 0 15.82838 -13.11492 8.32578 5.12006 6.01505 -18.90142 -5.252529 -94.93382 28.06399 15.29749 0 0 -8.873286 10.31291 24.11043 0.4833657
2.111716 102.7409 9.886176 -0.6647327 -0.987445 0.4802627 6.219053 -27.73533 6.994373 -0 31.6204 -0 -6.315116 -7.443887 -4.068349 -5.3701 15.87811 -17.65413 -0 3.913602 -0 8.25888 -20.36703 24.36409 -3.093229 -2.442873 4.716548 2.50434 10.16651 -6.81294 0.3708429 20.53112 10.38561 7.427773 -20.34287 7.744425 6.657141 -16.72664 10.26728 85.31077 33.31766 -21.34723 -0 0 14.64101 -11.93455 8.422833 4.357972 6.557012 -19.83591 -4.483466 -94.77806 28.47557 14.96084 0 0 -10.56651 10.08865 23.58047 0.5894409
2.451529 102.0195 12.75779 -0.6433724 -0.9459151 0.8800034 6.577327 -29.66662 6.463325 -0 25.41198 -0 -6.6065 -5.611961 -3.567831 -5.496907 17.71857 -17.11211 -0 4.145403 -0 7.576067 -21.29057 23.286 -3.15593 -1.718242 4.673745 2.68021 9.839215 -7.119651 0.3002988 20.26212 10.39131 7.355004 -20.61267 7.688798 6.178502 -16.25717 10.13066 86.25635 33.22918 -22.15311 -0 0 13.31274 -10.66988 8.562104 3.688585 6.925457 -20.55531 -4.01462 -94.47032 28.78408 14.5507 0 0 -12.20192 9.899233 23.0051 0.6192279
